<svg width="20" height="20" viewBox="0 0 20 20" fill="none" xmlns="http://www.w3.org/2000/svg">
<path d="M9.125 14.2917H10.9167V10.875H14.2917V9.08333H10.9167V5.70833H9.125V9.08333H5.70833V10.875H9.125V14.2917ZM4.42313 17.625C3.85326 17.625 3.36944 17.4261 2.97167 17.0283C2.57389 16.6306 2.375 16.1467 2.375 15.5769V4.42313C2.375 3.85326 2.57389 3.36944 2.97167 2.97167C3.36944 2.57389 3.85326 2.375 4.42313 2.375H15.5769C16.1467 2.375 16.6306 2.57389 17.0283 2.97167C17.4261 3.36944 17.625 3.85326 17.625 4.42313V15.5769C17.625 16.1467 17.4261 16.6306 17.0283 17.0283C16.6306 17.4261 16.1467 17.625 15.5769 17.625H4.42313ZM4.42313 15.8333H15.5769C15.641 15.8333 15.6998 15.8066 15.7531 15.7531C15.8066 15.6998 15.8333 15.641 15.8333 15.5769V4.42313C15.8333 4.35896 15.8066 4.30021 15.7531 4.24687C15.6998 4.1934 15.641 4.16667 15.5769 4.16667H4.42313C4.35896 4.16667 4.30021 4.1934 4.24688 4.24687C4.1934 4.30021 4.16667 4.35896 4.16667 4.42313V15.5769C4.16667 15.641 4.1934 15.6998 4.24688 15.7531C4.30021 15.8066 4.35896 15.8333 4.42313 15.8333Z" fill="#008236"/>
</svg>
