<svg width="20" height="20" viewBox="0 0 20 20" fill="none" xmlns="http://www.w3.org/2000/svg">
<path d="M6.00646 17.7499C5.42424 17.7499 4.93729 17.5542 4.54563 17.1627C4.1541 16.771 3.95833 16.284 3.95833 15.7018V4.91661H3.125V3.12494H7.45833V2.22119H12.5833V3.12494H16.9167V4.91661H16.0833V15.7018C16.0833 16.2717 15.8844 16.7555 15.4867 17.1533C15.0889 17.5511 14.6051 17.7499 14.0352 17.7499H6.00646ZM14.2917 4.91661H5.75V15.7018C5.75 15.7767 5.77403 15.8381 5.82208 15.8862C5.87014 15.9342 5.9316 15.9583 6.00646 15.9583H14.0352C14.0994 15.9583 14.1581 15.9315 14.2115 15.8781C14.2649 15.8247 14.2917 15.766 14.2917 15.7018V4.91661ZM7.39917 14.2708H9.19063V6.60411H7.39917V14.2708ZM10.851 14.2708H12.6425V6.60411H10.851V14.2708Z" fill="#525252"/>
</svg>
