<svg width="22" height="22" viewBox="0 0 22 22" fill="none" xmlns="http://www.w3.org/2000/svg">
<path d="M4.9001 16.8791H6.05716L14.565 8.37129L13.4079 7.21423L4.9001 15.722V16.8791ZM3.2666 18.5126V15.0414L14.565 3.74304C14.7314 3.57666 14.9116 3.45566 15.1058 3.38004C15.2999 3.30441 15.5041 3.2666 15.7184 3.2666C15.9326 3.2666 16.138 3.30441 16.3346 3.38004C16.5312 3.45566 16.7127 3.57666 16.8791 3.74304L18.0362 4.9001C18.2025 5.06648 18.3235 5.24798 18.3992 5.4446C18.4748 5.64123 18.5126 5.84193 18.5126 6.04673C18.5126 6.26528 18.4746 6.47356 18.3987 6.67154C18.3228 6.86953 18.2019 7.05042 18.0362 7.21423L6.73779 18.5126H3.2666ZM13.9762 7.80297L13.4079 7.21423L14.565 8.37129L13.9762 7.80297Z" fill="#008236"/>
</svg>
