<svg width="18" height="18" viewBox="0 0 18 18" fill="none" xmlns="http://www.w3.org/2000/svg">
<path d="M1.7998 1.8C1.7998 1.32261 1.98945 0.864773 2.32701 0.527208C2.66458 0.189642 3.12241 0 3.5998 0L10.7998 0L16.1998 5.4V16.2C16.1998 16.6774 16.0102 17.1352 15.6726 17.4728C15.335 17.8104 14.8772 18 14.3998 18H3.5998C3.12241 18 2.66458 17.8104 2.32701 17.4728C1.98945 17.1352 1.7998 16.6774 1.7998 16.2V1.8Z" fill="#444CE7"/>
<path opacity="0.3" d="M10.7998 0L16.1998 5.4H12.5998C12.1224 5.4 11.6646 5.21036 11.327 4.87279C10.9894 4.53523 10.7998 4.07739 10.7998 3.6V0Z" fill="#CCCCCC"/>
<path d="M5.32812 14.3998V11.4541H7.31263V11.968H5.95093V12.67H7.21093V13.183H5.95093V13.8864H7.31892V14.3998H5.32812ZM8.39218 11.4541L8.98618 12.4581H9.00868L9.60583 11.4546H10.3092L9.41053 12.927L10.3294 14.3998H9.61303L9.00913 13.3945H8.98618L8.38183 14.3998H7.66858L8.59063 12.927L7.68612 11.4541H8.39218ZM10.7034 14.3998V11.4541H12.6879V11.968H11.3262V12.67H12.5862V13.183H11.3262V13.8864H12.6937V14.3998H10.7034Z" fill="#CCCCCC"/>
</svg>
