<svg width="22" height="22" viewBox="0 0 22 22" fill="none" xmlns="http://www.w3.org/2000/svg">
<path d="M6.54123 19.3298C5.90719 19.3298 5.37691 19.1166 4.95038 18.6902C4.52401 18.2637 4.31082 17.7334 4.31082 17.0993V5.35425H3.40332V3.40313H8.12232V2.41895H13.7034V3.40313H18.4224V5.35425H17.5149V17.0993C17.5149 17.7199 17.2984 18.2468 16.8652 18.68C16.432 19.1132 15.9051 19.3298 15.2845 19.3298H6.54123ZM15.5638 5.35425H6.26195V17.0993C6.26195 17.1809 6.28811 17.2478 6.34044 17.3001C6.39278 17.3525 6.4597 17.3786 6.54123 17.3786H15.2845C15.3544 17.3786 15.4184 17.3495 15.4765 17.2913C15.5347 17.2332 15.5638 17.1692 15.5638 17.0993V5.35425ZM8.05789 15.5409H10.0088V7.19194H8.05789V15.5409ZM11.817 15.5409H13.7679V7.19194H11.817V15.5409Z" fill="#008236"/>
</svg>
