<svg width="36" height="34" viewBox="0 0 36 34" fill="none" xmlns="http://www.w3.org/2000/svg">
<g clip-path="url(#clip0_2246_13463)">
<path d="M26.9091 27.9697L19.6061 20.6666C19 21.0909 18.29 21.4242 17.4761 21.6666C16.6621 21.9091 15.8371 22.0303 15.0009 22.0303C12.7781 22.0303 10.8889 21.2525 9.33333 19.6969C7.77778 18.1414 7 16.2525 7 14.0303C7 11.8081 7.77778 9.91916 9.33333 8.36361C10.8889 6.80805 12.7778 6.03027 15 6.03027C17.2222 6.03027 19.1111 6.80805 20.6667 8.36361C22.2222 9.91916 23 11.8084 23 14.0312C23 14.8673 22.8889 15.6671 22.6667 16.4306C22.4444 17.194 22.1111 17.899 21.6667 18.5454L29 25.8788L26.9091 27.9697ZM15 19.0606C16.4141 19.0606 17.6061 18.5757 18.5758 17.606C19.5455 16.6363 20.0303 15.4444 20.0303 14.0303C20.0303 12.6161 19.5455 11.4242 18.5758 10.4545C17.6061 9.48482 16.4141 8.99997 15 8.99997C13.5859 8.99997 12.3939 9.48482 11.4242 10.4545C10.4545 11.4242 9.9697 12.6161 9.9697 14.0303C9.9697 15.4444 10.4545 16.6363 11.4242 17.606C12.3939 18.5757 13.5859 19.0606 15 19.0606Z" fill="#333333"/>
</g>
<defs>
<clipPath id="clip0_2246_13463">
<rect width="22" height="22" fill="white" transform="translate(7 6)"/>
</clipPath>
</defs>
</svg>
