<svg width="18" height="18" viewBox="0 0 18 18" fill="none" xmlns="http://www.w3.org/2000/svg">
<path d="M1.7998 1.8C1.7998 1.32261 1.98945 0.864773 2.32701 0.527208C2.66458 0.189642 3.12241 0 3.5998 0L10.7998 0L16.1998 5.4V16.2C16.1998 16.6774 16.0102 17.1352 15.6726 17.4728C15.335 17.8104 14.8772 18 14.3998 18H3.5998C3.12241 18 2.66458 17.8104 2.32701 17.4728C1.98945 17.1352 1.7998 16.6774 1.7998 16.2V1.8Z" fill="#D92D20"/>
<path opacity="0.3" d="M10.7998 0L16.1998 5.4H12.5998C12.1224 5.4 11.6646 5.21036 11.327 4.87279C10.9894 4.53523 10.7998 4.07739 10.7998 3.6V0Z" fill="white"/>
<path d="M11.2841 11.3375C10.8346 11.3375 10.2725 11.4158 10.0889 11.4433C9.32754 10.6486 9.11109 10.1968 9.06249 10.0762C9.25733 9.54971 9.36819 8.9959 9.39099 8.43501C9.40674 8.02101 9.31899 7.71096 9.13044 7.51476C9.06807 7.44956 8.99341 7.39735 8.91078 7.36113C8.82814 7.32491 8.73915 7.30539 8.64894 7.30371C8.41944 7.30371 8.03469 7.41981 8.03469 8.19606C8.03469 8.87016 8.34879 9.58521 8.43564 9.76971C7.97799 11.1017 7.48704 12.0139 7.38264 12.2015C5.54394 12.8936 5.40039 13.5632 5.40039 13.7527C5.40039 14.0938 5.64339 14.2972 6.04974 14.2972C7.03749 14.2972 7.93929 12.6385 8.08824 12.3505C8.79024 12.071 9.72894 11.8978 9.96789 11.8564C10.6528 12.5089 11.4443 12.6826 11.7733 12.6826C12.0208 12.6826 12.6004 12.6826 12.6004 12.0868C12.6004 11.5333 11.8912 11.3375 11.2841 11.3375ZM11.2364 11.7286C11.7697 11.7286 11.911 11.905 11.911 11.9986C11.911 12.0571 11.8885 12.2479 11.6027 12.2479C11.3462 12.2479 10.9034 12.0994 10.4678 11.7781C10.7227 11.7447 10.9794 11.7282 11.2364 11.7286ZM8.62059 7.68306C8.66919 7.68306 8.70159 7.69836 8.72769 7.73526C8.88114 7.94811 8.75739 8.64426 8.60709 9.18876C8.46129 8.72166 8.35239 8.00526 8.50584 7.75326C8.53599 7.70376 8.57019 7.68306 8.62059 7.68306ZM8.36139 11.851C8.55489 11.4604 8.77089 10.8916 8.88924 10.5703C9.12504 10.9649 9.44274 11.3321 9.62634 11.5306C9.05484 11.6512 8.62149 11.7718 8.36139 11.851ZM5.78469 13.8049C5.77209 13.7896 5.76984 13.7576 5.77974 13.7194C5.79954 13.6397 5.95344 13.2424 7.06494 12.7456C6.90609 12.9962 6.65724 13.3544 6.38364 13.6222C6.19149 13.8022 6.04164 13.8935 5.93814 13.8935C5.90124 13.8935 5.85039 13.8836 5.78469 13.8049Z" fill="white"/>
</svg>
