<svg width="20" height="20" viewBox="0 0 20 20" fill="none" xmlns="http://www.w3.org/2000/svg">
<path d="M13.4167 6.71484V4.13151H6.58333V6.71484H4.79167V2.33984H15.2083V6.71484H13.4167ZM14.4335 11.0065C14.7183 11.0065 14.9613 10.9023 15.1627 10.694C15.3641 10.4857 15.4648 10.2391 15.4648 9.95443C15.4648 9.6697 15.3649 9.42665 15.1652 9.22526C14.9656 9.02387 14.7183 8.92318 14.4231 8.92318C14.1453 8.92318 13.9023 9.02297 13.694 9.22255C13.4856 9.42227 13.3815 9.6697 13.3815 9.96484C13.3815 10.2426 13.4856 10.4857 13.694 10.694C13.9023 10.9023 14.1488 11.0065 14.4335 11.0065ZM13.4167 16.1251V13.5673H6.58333V16.1251H13.4167ZM15.2083 17.9167H4.79167V14.7084H1.36542V9.33984C1.36542 8.61068 1.62264 7.99089 2.13708 7.48047C2.65153 6.97005 3.26931 6.71484 3.99042 6.71484H16.0096C16.7388 6.71484 17.3585 6.97005 17.869 7.48047C18.3794 7.99089 18.6346 8.61068 18.6346 9.33984V14.7084H15.2083V17.9167ZM16.8429 12.9167V9.34776C16.8429 9.10637 16.7651 8.90582 16.6094 8.74609C16.4537 8.58637 16.2607 8.50651 16.0304 8.50651H3.99042C3.75431 8.50651 3.55639 8.58637 3.39667 8.74609C3.23695 8.90582 3.15708 9.10373 3.15708 9.33984V12.9167H4.79167V11.7757H15.2083V12.9167H16.8429Z" fill="#008236"/>
</svg>
