<svg width="18" height="18" viewBox="0 0 18 18" fill="none" xmlns="http://www.w3.org/2000/svg">
<path d="M1.7998 1.8C1.7998 1.32261 1.98945 0.864773 2.32701 0.527208C2.66458 0.189642 3.12241 0 3.5998 0L10.7998 0L16.1998 5.4V16.2C16.1998 16.6774 16.0102 17.1352 15.6726 17.4728C15.335 17.8104 14.8772 18 14.3998 18H3.5998C3.12241 18 2.66458 17.8104 2.32701 17.4728C1.98945 17.1352 1.7998 16.6774 1.7998 16.2V1.8Z" fill="#7F56D9"/>
<path opacity="0.3" d="M10.7998 0L16.1998 5.4H12.5998C12.1224 5.4 11.6646 5.21036 11.327 4.87279C10.9894 4.53523 10.7998 4.07739 10.7998 3.6V0Z" fill="#CCCCCC"/>
<path d="M6.55423 12.3015C6.551 12.2483 6.53601 12.1965 6.51033 12.1498C6.48465 12.1031 6.44892 12.0627 6.40573 12.0315C6.31873 11.967 6.20038 11.9347 6.05068 11.9347C5.94928 11.9347 5.86348 11.9491 5.79328 11.9779C5.7297 12.0009 5.67387 12.0413 5.63218 12.0945C5.59597 12.1435 5.57685 12.2031 5.57773 12.2641C5.57593 12.3169 5.58688 12.363 5.61058 12.4023C5.63738 12.4429 5.67213 12.4776 5.71273 12.5044C5.75593 12.532 5.80588 12.5565 5.86258 12.5778C5.91898 12.5976 5.97928 12.6148 6.04348 12.6295L6.30808 12.6925C6.43678 12.7213 6.55483 12.7597 6.66223 12.8077C6.76933 12.8557 6.86233 12.9147 6.94123 12.9846C7.01953 13.0548 7.08043 13.1373 7.12393 13.2321C7.16803 13.3269 7.19053 13.4356 7.19143 13.5583C7.19477 13.7251 7.14652 13.8889 7.05328 14.0272C6.96328 14.1589 6.83278 14.2611 6.66178 14.3337C6.49228 14.4057 6.28768 14.4417 6.04798 14.4417C5.81008 14.4417 5.60308 14.4052 5.42698 14.3323C5.26063 14.2675 5.11731 14.1548 5.01523 14.0083C4.91743 13.8646 4.86613 13.6869 4.86133 13.4751H5.46433C5.47063 13.5741 5.49883 13.6566 5.54893 13.7226C5.59993 13.7877 5.66743 13.837 5.75143 13.8706C5.83693 13.903 5.93338 13.9192 6.04078 13.9192C6.14638 13.9192 6.23788 13.9039 6.31528 13.8733C6.38651 13.8478 6.4496 13.8037 6.49798 13.7455C6.54066 13.692 6.56355 13.6254 6.56278 13.557C6.56483 13.4961 6.54395 13.4367 6.50428 13.3905C6.45722 13.3395 6.399 13.3 6.33418 13.2753C6.24601 13.2393 6.15512 13.2104 6.06238 13.1889L5.74153 13.1083C5.49343 13.048 5.29738 12.9535 5.15338 12.8248C5.00938 12.6964 4.93798 12.5235 4.93918 12.306C4.93409 12.1386 4.98404 11.9742 5.08138 11.838C5.17798 11.7051 5.31088 11.6011 5.48008 11.5261C5.64838 11.4514 5.84008 11.4141 6.05518 11.4141C6.27388 11.4141 6.46468 11.4516 6.62758 11.5266C6.79168 11.6013 6.91918 11.7052 7.01008 11.8384C7.10098 11.9719 7.14793 12.1263 7.15093 12.3015H6.55423ZM8.14273 11.4541L8.85418 13.6924H8.88118L9.59488 11.4541H10.2852L9.26998 14.3998H8.46763L7.45063 11.4541H8.14273ZM12.4267 12.4063C12.4088 12.3403 12.3802 12.2777 12.3421 12.2209C12.2673 12.1117 12.1569 12.0319 12.0298 11.995C11.9583 11.9743 11.8842 11.9642 11.8098 11.9649C11.6589 11.9649 11.5266 12.0024 11.4129 12.0774C11.2949 12.1582 11.203 12.2715 11.1483 12.4036C11.0853 12.5452 11.0536 12.7188 11.0533 12.9243C11.0533 13.1295 11.0845 13.3039 11.1469 13.4476C11.209 13.5916 11.2972 13.7014 11.4115 13.777C11.5255 13.852 11.6602 13.8895 11.8156 13.8895C11.9566 13.8895 12.0769 13.8645 12.1765 13.8144C12.2773 13.7637 12.354 13.6923 12.4065 13.6002C12.4605 13.5084 12.4875 13.3995 12.4875 13.2735L12.6135 13.2924H11.8543V12.8235H13.0873V13.1947C13.0873 13.4536 13.0326 13.6761 12.9231 13.8621C12.8158 14.0445 12.6592 14.193 12.4713 14.2905C12.2796 14.3904 12.06 14.4402 11.8125 14.4399C11.5365 14.4399 11.2939 14.3791 11.0848 14.2576C10.8749 14.1345 10.7052 13.9532 10.5961 13.7356C10.48 13.5091 10.422 13.2406 10.422 12.9301C10.422 12.6913 10.4565 12.4783 10.5255 12.2911C10.5889 12.1134 10.6888 11.9509 10.8189 11.8141C10.9449 11.6839 11.0911 11.5846 11.2576 11.5162C11.4241 11.4481 11.6049 11.4141 11.7999 11.4141C11.9667 11.4141 12.1219 11.4385 12.2656 11.4874C12.4096 11.5354 12.5371 11.6035 12.6481 11.6917C12.7606 11.7802 12.8521 11.8852 12.9226 12.0067C12.994 12.1273 13.0396 12.2605 13.0594 12.4063H12.4267Z" fill="#CCCCCC"/>
</svg>
