<svg width="22" height="22" viewBox="0 0 22 22" fill="none" xmlns="http://www.w3.org/2000/svg">
<path d="M10.8917 14.6808C12.0713 14.6808 13.0733 14.268 13.8976 13.4423C14.7219 12.6166 15.134 11.614 15.134 10.4344C15.134 9.25481 14.7212 8.25285 13.8955 7.42854C13.0699 6.60422 12.0672 6.19207 10.8876 6.19207C9.70802 6.19207 8.70607 6.60491 7.88175 7.43058C7.05744 8.25625 6.64529 9.25889 6.64529 10.4385C6.64529 11.6181 7.05812 12.62 7.8838 13.4444C8.70947 14.2687 9.71211 14.6808 10.8917 14.6808ZM10.8869 12.9321C10.193 12.9321 9.60404 12.6892 9.12004 12.2033C8.63604 11.7175 8.39404 11.1277 8.39404 10.4337C8.39404 9.73979 8.63694 9.15082 9.12276 8.66682C9.60857 8.18282 10.1985 7.94082 10.8924 7.94082C11.5863 7.94082 12.1753 8.18373 12.6593 8.66954C13.1433 9.15536 13.3853 9.74523 13.3853 10.4392C13.3853 11.1331 13.1424 11.7221 12.6566 12.2061C12.1708 12.6901 11.5809 12.9321 10.8869 12.9321ZM10.8908 17.4696C8.59225 17.4696 6.50931 16.8296 4.64198 15.5498C2.77465 14.27 1.42035 12.5656 0.579102 10.4364C1.42035 8.3073 2.77419 6.60286 4.64062 5.32314C6.50719 4.04326 8.58983 3.40332 10.8885 3.40332C13.1871 3.40332 15.27 4.04326 17.1373 5.32314C19.0047 6.60286 20.359 8.3073 21.2002 10.4364C20.359 12.5656 19.0051 14.27 17.1387 15.5498C15.2721 16.8296 13.1895 17.4696 10.8908 17.4696ZM10.8897 15.5184C12.629 15.5184 14.2313 15.0603 15.6965 14.144C17.1616 13.2278 18.2819 11.9919 19.0572 10.4364C18.2819 8.88099 17.1616 7.64513 15.6965 6.72885C14.2313 5.81258 12.629 5.35445 10.8897 5.35445C9.15029 5.35445 7.54802 5.81258 6.08286 6.72885C4.6177 7.64513 3.49747 8.88099 2.72216 10.4364C3.49747 11.9919 4.6177 13.2278 6.08286 14.144C7.54802 15.0603 9.15029 15.5184 10.8897 15.5184Z" fill="#008236"/>
</svg>
