<svg width="20" height="20" viewBox="0 0 20 20" fill="none" xmlns="http://www.w3.org/2000/svg">
<path d="M15.5192 13.2039C15.5192 14.71 14.9892 15.9831 13.9294 17.0232C12.8696 18.0635 11.5867 18.5837 10.0806 18.5837C8.57464 18.5837 7.29506 18.0635 6.24186 17.0232C5.18853 15.9831 4.66187 14.71 4.66187 13.2039V5.29512C4.66187 4.20859 5.04152 3.2906 5.80082 2.54116C6.55999 1.79171 7.48568 1.41699 8.57791 1.41699C9.67013 1.41699 10.5953 1.79171 11.3533 2.54116C12.1114 3.2906 12.4904 4.20859 12.4904 5.29512V12.8657C12.4904 13.5227 12.2558 14.083 11.7864 14.5468C11.317 15.0104 10.7508 15.2422 10.0877 15.2422C9.4245 15.2422 8.85923 15.0118 8.39187 14.551C7.9245 14.09 7.69082 13.5282 7.69082 12.8657V5.48762H9.46145V12.8657C9.46145 13.0349 9.52263 13.1782 9.64499 13.2955C9.76735 13.4129 9.91242 13.4716 10.0802 13.4716C10.2478 13.4716 10.3963 13.4129 10.5256 13.2955C10.6549 13.1782 10.7196 13.0349 10.7196 12.8657V5.2872C10.7249 4.69956 10.518 4.20276 10.0992 3.79678C9.68027 3.39081 9.17603 3.18783 8.58645 3.18783C7.9995 3.18783 7.49381 3.39248 7.06937 3.80178C6.64492 4.21123 6.4327 4.70901 6.4327 5.29512V13.2039C6.43798 14.2114 6.7961 15.0647 7.50707 15.7639C8.21791 16.4632 9.08082 16.8128 10.0958 16.8128C11.0964 16.8128 11.9545 16.4632 12.6702 15.7639C13.3858 15.0647 13.7382 14.2114 13.7275 13.2039V4.82095H15.5192V13.2039Z" fill="#EA580C"/>
</svg>
