<svg width="34" height="34" viewBox="0 0 34 34" fill="none" xmlns="http://www.w3.org/2000/svg">
<path opacity="0.2" d="M28.6875 6.375V11.6875H5.3125V6.375C5.3125 6.09321 5.42444 5.82296 5.6237 5.6237C5.82296 5.42444 6.09321 5.3125 6.375 5.3125H27.625C27.9068 5.3125 28.177 5.42444 28.3763 5.6237C28.5756 5.82296 28.6875 6.09321 28.6875 6.375Z" fill="#F97316"/>
<path d="M27.625 4.25H24.4375V3.1875C24.4375 2.90571 24.3256 2.63546 24.1263 2.4362C23.927 2.23694 23.6568 2.125 23.375 2.125C23.0932 2.125 22.823 2.23694 22.6237 2.4362C22.4244 2.63546 22.3125 2.90571 22.3125 3.1875V4.25H11.6875V3.1875C11.6875 2.90571 11.5756 2.63546 11.3763 2.4362C11.177 2.23694 10.9068 2.125 10.625 2.125C10.3432 2.125 10.073 2.23694 9.8737 2.4362C9.67444 2.63546 9.5625 2.90571 9.5625 3.1875V4.25H6.375C5.81141 4.25 5.27091 4.47388 4.8724 4.8724C4.47388 5.27091 4.25 5.81141 4.25 6.375V27.625C4.25 28.1886 4.47388 28.7291 4.8724 29.1276C5.27091 29.5261 5.81141 29.75 6.375 29.75H27.625C28.1886 29.75 28.7291 29.5261 29.1276 29.1276C29.5261 28.7291 29.75 28.1886 29.75 27.625V6.375C29.75 5.81141 29.5261 5.27091 29.1276 4.8724C28.7291 4.47388 28.1886 4.25 27.625 4.25ZM9.5625 6.375V7.4375C9.5625 7.71929 9.67444 7.98954 9.8737 8.1888C10.073 8.38806 10.3432 8.5 10.625 8.5C10.9068 8.5 11.177 8.38806 11.3763 8.1888C11.5756 7.98954 11.6875 7.71929 11.6875 7.4375V6.375H22.3125V7.4375C22.3125 7.71929 22.4244 7.98954 22.6237 8.1888C22.823 8.38806 23.0932 8.5 23.375 8.5C23.6568 8.5 23.927 8.38806 24.1263 8.1888C24.3256 7.98954 24.4375 7.71929 24.4375 7.4375V6.375H27.625V10.625H6.375V6.375H9.5625ZM27.625 27.625H6.375V12.75H27.625V27.625Z" fill="#F97316"/>
<rect x="15.9375" y="14.875" width="2.125" height="7.4375" rx="1.0625" fill="#F97316"/>
<rect x="15.9375" y="23.375" width="2.125" height="2.125" rx="1.0625" fill="#F97316"/>
</svg>
