<svg width="34" height="34" viewBox="0 0 34 34" fill="none" xmlns="http://www.w3.org/2000/svg">
<path opacity="0.2" d="M28.6875 6.375V11.6875H5.3125V6.375C5.3125 6.09321 5.42444 5.82296 5.6237 5.6237C5.82296 5.42444 6.09321 5.3125 6.375 5.3125H27.625C27.9068 5.3125 28.177 5.42444 28.3763 5.6237C28.5756 5.82296 28.6875 6.09321 28.6875 6.375Z" fill="#C10007"/>
<path d="M27.625 4.25H24.4375V3.1875C24.4375 2.90571 24.3256 2.63546 24.1263 2.4362C23.927 2.23694 23.6568 2.125 23.375 2.125C23.0932 2.125 22.823 2.23694 22.6237 2.4362C22.4244 2.63546 22.3125 2.90571 22.3125 3.1875V4.25H11.6875V3.1875C11.6875 2.90571 11.5756 2.63546 11.3763 2.4362C11.177 2.23694 10.9068 2.125 10.625 2.125C10.3432 2.125 10.073 2.23694 9.8737 2.4362C9.67444 2.63546 9.5625 2.90571 9.5625 3.1875V4.25H6.375C5.81141 4.25 5.27091 4.47388 4.8724 4.8724C4.47388 5.27091 4.25 5.81141 4.25 6.375V27.625C4.25 28.1886 4.47388 28.7291 4.8724 29.1276C5.27091 29.5261 5.81141 29.75 6.375 29.75H27.625C28.1886 29.75 28.7291 29.5261 29.1276 29.1276C29.5261 28.7291 29.75 28.1886 29.75 27.625V6.375C29.75 5.81141 29.5261 5.27091 29.1276 4.8724C28.7291 4.47388 28.1886 4.25 27.625 4.25ZM9.5625 6.375V7.4375C9.5625 7.71929 9.67444 7.98954 9.8737 8.1888C10.073 8.38806 10.3432 8.5 10.625 8.5C10.9068 8.5 11.177 8.38806 11.3763 8.1888C11.5756 7.98954 11.6875 7.71929 11.6875 7.4375V6.375H22.3125V7.4375C22.3125 7.71929 22.4244 7.98954 22.6237 8.1888C22.823 8.38806 23.0932 8.5 23.375 8.5C23.6568 8.5 23.927 8.38806 24.1263 8.1888C24.3256 7.98954 24.4375 7.71929 24.4375 7.4375V6.375H27.625V10.625H6.375V6.375H9.5625ZM27.625 27.625H6.375V12.75H27.625V27.625ZM20.9392 17.7517L18.5021 20.1875L20.9392 22.6233C21.0379 22.722 21.1162 22.8392 21.1697 22.9682C21.2231 23.0972 21.2506 23.2354 21.2506 23.375C21.2506 23.5146 21.2231 23.6528 21.1697 23.7818C21.1162 23.9108 21.0379 24.028 20.9392 24.1267C20.8405 24.2254 20.7233 24.3037 20.5943 24.3572C20.4653 24.4106 20.3271 24.4381 20.1875 24.4381C20.0479 24.4381 19.9097 24.4106 19.7807 24.3572C19.6517 24.3037 19.5345 24.2254 19.4358 24.1267L17 21.6896L14.5642 24.1267C14.4655 24.2254 14.3483 24.3037 14.2193 24.3572C14.0903 24.4106 13.9521 24.4381 13.8125 24.4381C13.6729 24.4381 13.5347 24.4106 13.4057 24.3572C13.2767 24.3037 13.1595 24.2254 13.0608 24.1267C12.9621 24.028 12.8838 23.9108 12.8303 23.7818C12.7769 23.6528 12.7494 23.5146 12.7494 23.375C12.7494 23.2354 12.7769 23.0972 12.8303 22.9682C12.8838 22.8392 12.9621 22.722 13.0608 22.6233L15.4979 20.1875L13.0608 17.7517C12.8614 17.5524 12.7494 17.2819 12.7494 17C12.7494 16.7181 12.8614 16.4476 13.0608 16.2483C13.2601 16.0489 13.5306 15.9369 13.8125 15.9369C14.0944 15.9369 14.3649 16.0489 14.5642 16.2483L17 18.6854L19.4358 16.2483C19.5345 16.1496 19.6517 16.0713 19.7807 16.0178C19.9097 15.9644 20.0479 15.9369 20.1875 15.9369C20.3271 15.9369 20.4653 15.9644 20.5943 16.0178C20.7233 16.0713 20.8405 16.1496 20.9392 16.2483C21.0379 16.347 21.1162 16.4642 21.1697 16.5932C21.2231 16.7222 21.2506 16.8604 21.2506 17C21.2506 17.1396 21.2231 17.2778 21.1697 17.4068C21.1162 17.5358 21.0379 17.653 20.9392 17.7517Z" fill="#C10007"/>
</svg>
