<svg width="34" height="34" viewBox="0 0 34 34" fill="none" xmlns="http://www.w3.org/2000/svg">
<path opacity="0.2" d="M30.8125 21.25H3.1875L6.17445 9.30484C6.23191 9.07498 6.36455 8.87092 6.55128 8.72509C6.73802 8.57926 6.96815 8.50004 7.20508 8.5H26.7949C27.0319 8.50004 27.262 8.57926 27.4487 8.72509C27.6355 8.87092 27.7681 9.07498 27.8255 9.30484L30.8125 21.25Z" fill="#404040"/>
<path d="M31.8431 20.9923L28.8575 9.04719C28.7425 8.58725 28.4771 8.17896 28.1033 7.88728C27.7296 7.5956 27.269 7.43728 26.7949 7.4375H18.0625V5.3125C18.0625 4.74891 17.8386 4.20841 17.4401 3.8099C17.0416 3.41138 16.5011 3.1875 15.9375 3.1875H10.625C10.0614 3.1875 9.52091 3.41138 9.1224 3.8099C8.72388 4.20841 8.5 4.74891 8.5 5.3125V7.4375H7.20508C6.73099 7.43728 6.27043 7.5956 5.89669 7.88728C5.52294 8.17896 5.25747 8.58725 5.1425 9.04719L2.15688 20.9923C2.13566 21.0766 2.12496 21.1631 2.125 21.25V25.5C2.125 26.0636 2.34888 26.6041 2.7474 27.0026C3.14591 27.4011 3.68641 27.625 4.25 27.625H29.75C30.3136 27.625 30.8541 27.4011 31.2526 27.0026C31.6511 26.6041 31.875 26.0636 31.875 25.5V21.25C31.875 21.1631 31.8643 21.0766 31.8431 20.9923ZM10.625 5.3125H15.9375V7.4375H10.625V5.3125ZM7.20508 9.5625H26.7949L29.4512 20.1875H4.54883L7.20508 9.5625ZM4.25 25.5V22.3125H29.75V25.5H4.25ZM8.5 12.75C8.5 12.4682 8.61194 12.198 8.8112 11.9987C9.01046 11.7994 9.28071 11.6875 9.5625 11.6875H11.6875C11.9693 11.6875 12.2395 11.7994 12.4388 11.9987C12.6381 12.198 12.75 12.4682 12.75 12.75C12.75 13.0318 12.6381 13.302 12.4388 13.5013C12.2395 13.7006 11.9693 13.8125 11.6875 13.8125H9.5625C9.28071 13.8125 9.01046 13.7006 8.8112 13.5013C8.61194 13.302 8.5 13.0318 8.5 12.75ZM14.875 12.75C14.875 12.4682 14.9869 12.198 15.1862 11.9987C15.3855 11.7994 15.6557 11.6875 15.9375 11.6875H18.0625C18.3443 11.6875 18.6145 11.7994 18.8138 11.9987C19.0131 12.198 19.125 12.4682 19.125 12.75C19.125 13.0318 19.0131 13.302 18.8138 13.5013C18.6145 13.7006 18.3443 13.8125 18.0625 13.8125H15.9375C15.6557 13.8125 15.3855 13.7006 15.1862 13.5013C14.9869 13.302 14.875 13.0318 14.875 12.75ZM21.25 12.75C21.25 12.4682 21.3619 12.198 21.5612 11.9987C21.7605 11.7994 22.0307 11.6875 22.3125 11.6875H24.4375C24.7193 11.6875 24.9895 11.7994 25.1888 11.9987C25.3881 12.198 25.5 12.4682 25.5 12.75C25.5 13.0318 25.3881 13.302 25.1888 13.5013C24.9895 13.7006 24.7193 13.8125 24.4375 13.8125H22.3125C22.0307 13.8125 21.7605 13.7006 21.5612 13.5013C21.3619 13.302 21.25 13.0318 21.25 12.75ZM8.5 17C8.5 16.7182 8.61194 16.448 8.8112 16.2487C9.01046 16.0494 9.28071 15.9375 9.5625 15.9375H11.6875C11.9693 15.9375 12.2395 16.0494 12.4388 16.2487C12.6381 16.448 12.75 16.7182 12.75 17C12.75 17.2818 12.6381 17.552 12.4388 17.7513C12.2395 17.9506 11.9693 18.0625 11.6875 18.0625H9.5625C9.28071 18.0625 9.01046 17.9506 8.8112 17.7513C8.61194 17.552 8.5 17.2818 8.5 17ZM14.875 17C14.875 16.7182 14.9869 16.448 15.1862 16.2487C15.3855 16.0494 15.6557 15.9375 15.9375 15.9375H18.0625C18.3443 15.9375 18.6145 16.0494 18.8138 16.2487C19.0131 16.448 19.125 16.7182 19.125 17C19.125 17.2818 19.0131 17.552 18.8138 17.7513C18.6145 17.9506 18.3443 18.0625 18.0625 18.0625H15.9375C15.6557 18.0625 15.3855 17.9506 15.1862 17.7513C14.9869 17.552 14.875 17.2818 14.875 17ZM21.25 17C21.25 16.7182 21.3619 16.448 21.5612 16.2487C21.7605 16.0494 22.0307 15.9375 22.3125 15.9375H24.4375C24.7193 15.9375 24.9895 16.0494 25.1888 16.2487C25.3881 16.448 25.5 16.7182 25.5 17C25.5 17.2818 25.3881 17.552 25.1888 17.7513C24.9895 17.9506 24.7193 18.0625 24.4375 18.0625H22.3125C22.0307 18.0625 21.7605 17.9506 21.5612 17.7513C21.3619 17.552 21.25 17.2818 21.25 17Z" fill="#404040"/>
</svg>
