<svg width="34" height="34" viewBox="0 0 34 34" fill="none" xmlns="http://www.w3.org/2000/svg">
<path opacity="0.2" d="M28.6875 6.375V27.625C28.6875 27.9068 28.5756 28.177 28.3763 28.3763C28.177 28.5756 27.9068 28.6875 27.625 28.6875H6.375C6.09321 28.6875 5.82296 28.5756 5.6237 28.3763C5.42444 28.177 5.3125 27.9068 5.3125 27.625V6.375C5.3125 6.09321 5.42444 5.82296 5.6237 5.6237C5.82296 5.42444 6.09321 5.3125 6.375 5.3125H27.625C27.9068 5.3125 28.177 5.42444 28.3763 5.6237C28.5756 5.82296 28.6875 6.09321 28.6875 6.375Z" fill="#3B82F6"/>
<path d="M23.0642 13.0608C23.163 13.1595 23.2414 13.2766 23.2948 13.4056C23.3483 13.5346 23.3758 13.6729 23.3758 13.8125C23.3758 13.9521 23.3483 14.0904 23.2948 14.2194C23.2414 14.3484 23.163 14.4655 23.0642 14.5642L15.6267 22.0017C15.528 22.1005 15.4109 22.1789 15.2819 22.2323C15.1529 22.2858 15.0146 22.3133 14.875 22.3133C14.7354 22.3133 14.5971 22.2858 14.4681 22.2323C14.3391 22.1789 14.222 22.1005 14.1233 22.0017L10.9358 18.8142C10.7364 18.6149 10.6244 18.3444 10.6244 18.0625C10.6244 17.7806 10.7364 17.5101 10.9358 17.3108C11.1351 17.1114 11.4056 16.9994 11.6875 16.9994C11.9694 16.9994 12.2399 17.1114 12.4392 17.3108L14.875 19.7479L21.5608 13.0608C21.6595 12.962 21.7766 12.8836 21.9056 12.8302C22.0346 12.7767 22.1729 12.7492 22.3125 12.7492C22.4521 12.7492 22.5904 12.7767 22.7194 12.8302C22.8484 12.8836 22.9655 12.962 23.0642 13.0608ZM29.75 6.375V27.625C29.75 28.1886 29.5261 28.7291 29.1276 29.1276C28.7291 29.5261 28.1886 29.75 27.625 29.75H6.375C5.81141 29.75 5.27091 29.5261 4.8724 29.1276C4.47388 28.7291 4.25 28.1886 4.25 27.625V6.375C4.25 5.81141 4.47388 5.27091 4.8724 4.8724C5.27091 4.47388 5.81141 4.25 6.375 4.25H27.625C28.1886 4.25 28.7291 4.47388 29.1276 4.8724C29.5261 5.27091 29.75 5.81141 29.75 6.375ZM27.625 27.625V6.375H6.375V27.625H27.625Z" fill="#3B82F6"/>
</svg>
