<svg width="34" height="34" viewBox="0 0 34 34" fill="none" xmlns="http://www.w3.org/2000/svg">
<path opacity="0.2" d="M29.75 17C29.75 19.5217 29.0022 21.9868 27.6012 24.0835C26.2003 26.1802 24.209 27.8144 21.8792 28.7795C19.5495 29.7445 16.9859 29.997 14.5126 29.505C12.0393 29.013 9.76751 27.7987 7.98439 26.0156C6.20127 24.2325 4.98695 21.9607 4.49499 19.4874C4.00303 17.0141 4.25552 14.4505 5.22054 12.1208C6.18556 9.79103 7.81976 7.79975 9.91649 6.39876C12.0132 4.99777 14.4783 4.25 17 4.25C20.3815 4.25 23.6245 5.5933 26.0156 7.98439C28.4067 10.3755 29.75 13.6185 29.75 17Z" fill="#F0B100"/>
<path d="M17 3.1875C14.2682 3.1875 11.5976 3.99759 9.32619 5.51533C7.05474 7.03306 5.28436 9.19028 4.23892 11.7142C3.19348 14.2381 2.91995 17.0153 3.45291 19.6947C3.98587 22.374 5.30138 24.8352 7.23309 26.7669C9.16481 28.6986 11.626 30.0141 14.3053 30.5471C16.9847 31.0801 19.7619 30.8065 22.2858 29.7611C24.8097 28.7156 26.9669 26.9453 28.4847 24.6738C30.0024 22.4024 30.8125 19.7319 30.8125 17C30.8086 13.3379 29.3522 9.82687 26.7626 7.23736C24.1731 4.64785 20.6621 3.19137 17 3.1875ZM17 28.6875C14.6884 28.6875 12.4288 28.002 10.5068 26.7178C8.58478 25.4336 7.08676 23.6082 6.20216 21.4726C5.31756 19.337 5.08611 16.987 5.53708 14.7199C5.98804 12.4527 7.10117 10.3702 8.7357 8.73569C10.3702 7.10116 12.4527 5.98804 14.7199 5.53707C16.987 5.08611 19.337 5.31756 21.4726 6.20216C23.6082 7.08676 25.4336 8.58477 26.7178 10.5068C28.002 12.4288 28.6875 14.6884 28.6875 17C28.684 20.0986 27.4515 23.0694 25.2604 25.2604C23.0694 27.4515 20.0986 28.684 17 28.6875ZM22.3125 19.6562C22.3125 20.6425 21.9207 21.5884 21.2233 22.2858C20.5259 22.9832 19.58 23.375 18.5938 23.375H18.0625V24.4375C18.0625 24.7193 17.9506 24.9895 17.7513 25.1888C17.5521 25.3881 17.2818 25.5 17 25.5C16.7182 25.5 16.448 25.3881 16.2487 25.1888C16.0494 24.9895 15.9375 24.7193 15.9375 24.4375V23.375H13.8125C13.5307 23.375 13.2605 23.2631 13.0612 23.0638C12.8619 22.8645 12.75 22.5943 12.75 22.3125C12.75 22.0307 12.8619 21.7605 13.0612 21.5612C13.2605 21.3619 13.5307 21.25 13.8125 21.25H18.5938C19.0164 21.25 19.4218 21.0821 19.7207 20.7832C20.0196 20.4843 20.1875 20.0789 20.1875 19.6562C20.1875 19.2336 20.0196 18.8282 19.7207 18.5293C19.4218 18.2304 19.0164 18.0625 18.5938 18.0625H15.4063C14.42 18.0625 13.4741 17.6707 12.7767 16.9733C12.0793 16.2759 11.6875 15.33 11.6875 14.3438C11.6875 13.3575 12.0793 12.4116 12.7767 11.7142C13.4741 11.0168 14.42 10.625 15.4063 10.625H15.9375V9.5625C15.9375 9.28071 16.0494 9.01046 16.2487 8.8112C16.448 8.61194 16.7182 8.5 17 8.5C17.2818 8.5 17.5521 8.61194 17.7513 8.8112C17.9506 9.01046 18.0625 9.28071 18.0625 9.5625V10.625H20.1875C20.4693 10.625 20.7396 10.7369 20.9388 10.9362C21.1381 11.1355 21.25 11.4057 21.25 11.6875C21.25 11.9693 21.1381 12.2395 20.9388 12.4388C20.7396 12.6381 20.4693 12.75 20.1875 12.75H15.4063C14.9836 12.75 14.5782 12.9179 14.2793 13.2168C13.9804 13.5157 13.8125 13.9211 13.8125 14.3438C13.8125 14.7664 13.9804 15.1718 14.2793 15.4707C14.5782 15.7696 14.9836 15.9375 15.4063 15.9375H18.5938C19.58 15.9375 20.5259 16.3293 21.2233 17.0267C21.9207 17.7241 22.3125 18.67 22.3125 19.6562Z" fill="#F0B100"/>
</svg>
