<svg width="20" height="20" viewBox="0 0 20 20" fill="none" xmlns="http://www.w3.org/2000/svg">
<path d="M6.74354 10.0035H13.2565V8.42012H6.74354V10.0035ZM6.74354 12.7407H13.2565V11.1574H6.74354V12.7407ZM6.74354 15.4778H10.7565V13.8945H6.74354V15.4778ZM5.17313 18.5837C4.60326 18.5837 4.11944 18.3848 3.72167 17.987C3.32389 17.5892 3.125 17.1054 3.125 16.5355V3.46512C3.125 2.89526 3.32389 2.41144 3.72167 2.01366C4.11944 1.61588 4.60326 1.41699 5.17313 1.41699H11.625L16.875 6.64616V16.5355C16.875 17.1054 16.6761 17.5892 16.2783 17.987C15.8806 18.3848 15.3967 18.5837 14.8269 18.5837H5.17313ZM11.25 7.04199V3.20866H5.17313C5.10896 3.20866 5.05021 3.23539 4.99688 3.28887C4.9434 3.3422 4.91667 3.40095 4.91667 3.46512V16.5355C4.91667 16.5997 4.9434 16.6585 4.99688 16.7118C5.05021 16.7653 5.10896 16.792 5.17313 16.792H14.8269C14.891 16.792 14.9498 16.7653 15.0031 16.7118C15.0566 16.6585 15.0833 16.5997 15.0833 16.5355V7.04199H11.25Z" fill="#EA580C"/>
</svg>
