<svg width="20" height="20" viewBox="0 0 20 20" fill="none" xmlns="http://www.w3.org/2000/svg">
<path d="M16.2852 15.5205H7.46479C6.89493 15.5205 6.41111 15.3216 6.01333 14.9238C5.61556 14.5261 5.41667 14.0422 5.41667 13.4724V2.06863C5.41667 1.49877 5.61556 1.01495 6.01333 0.617175C6.41111 0.219397 6.89493 0.0205078 7.46479 0.0205078H13.125L18.3333 5.27051V13.4724C18.3333 14.0422 18.1344 14.5261 17.7367 14.9238C17.3389 15.3216 16.8551 15.5205 16.2852 15.5205ZM12.2083 6.16634V1.81217H7.46479C7.40063 1.81217 7.34188 1.83891 7.28854 1.89238C7.23507 1.94572 7.20833 2.00447 7.20833 2.06863V13.4724C7.20833 13.5365 7.23507 13.5953 7.28854 13.6486C7.34188 13.7021 7.40063 13.7288 7.46479 13.7288H16.2852C16.3494 13.7288 16.4081 13.7021 16.4615 13.6486C16.5149 13.5953 16.5417 13.5365 16.5417 13.4724V6.16634H12.2083ZM3.04813 19.9372C2.47826 19.9372 1.99444 19.7383 1.59667 19.3405C1.19889 18.9427 1 18.4589 1 17.889V6.33301H2.79167V17.889C2.79167 17.9532 2.8184 18.012 2.87188 18.0653C2.92521 18.1188 2.98396 18.1455 3.04813 18.1455H12.0208V19.9372H3.04813Z" fill="#525252"/>
</svg>
