<svg width="20" height="20" viewBox="0 0 20 20" fill="none" xmlns="http://www.w3.org/2000/svg">
<path d="M5.69563 14.179H7.58021L12.6523 9.14863L10.726 7.22238L5.69563 12.2528V14.179ZM13.2548 8.54613L14.1794 7.57488C14.2627 7.49155 14.3044 7.39433 14.3044 7.28322C14.3044 7.1721 14.2627 7.07488 14.1794 6.99155L12.8831 5.6953C12.7998 5.61197 12.7026 5.5703 12.5915 5.5703C12.4803 5.5703 12.3831 5.61197 12.2998 5.6953L11.3285 6.61988L13.2548 8.54613ZM4.29813 17.6247C3.7159 17.6247 3.22896 17.4289 2.83729 17.0374C2.44576 16.6457 2.25 16.1588 2.25 15.5765V4.21447C2.25 3.63224 2.44576 3.1453 2.83729 2.75363C3.22896 2.36211 3.7159 2.16634 4.29813 2.16634H7.50646C7.69771 1.68981 8.01771 1.28599 8.46646 0.954882C8.91507 0.623632 9.42625 0.458008 10 0.458008C10.579 0.458008 11.0929 0.623632 11.5417 0.954882C11.9904 1.28599 12.3077 1.68981 12.4935 2.16634H15.7019C16.2841 2.16634 16.771 2.36211 17.1627 2.75363C17.5542 3.1453 17.75 3.63224 17.75 4.21447V15.5765C17.75 16.1588 17.5542 16.6457 17.1627 17.0374C16.771 17.4289 16.2841 17.6247 15.7019 17.6247H4.29813ZM4.29813 15.833H15.7019C15.766 15.833 15.8248 15.8063 15.8781 15.7528C15.9316 15.6995 15.9583 15.6407 15.9583 15.5765V4.21447C15.9583 4.1503 15.9316 4.09155 15.8781 4.03822C15.8248 3.98474 15.766 3.95801 15.7019 3.95801H4.29813C4.23396 3.95801 4.17521 3.98474 4.12188 4.03822C4.0684 4.09155 4.04167 4.1503 4.04167 4.21447V15.5765C4.04167 15.6407 4.0684 15.6995 4.12188 15.7528C4.17521 15.8063 4.23396 15.833 4.29813 15.833ZM10 3.28822C10.1806 3.28822 10.3299 3.22919 10.4479 3.11113C10.566 2.99308 10.625 2.84377 10.625 2.66322C10.625 2.48266 10.566 2.33335 10.4479 2.2153C10.3299 2.09724 10.1806 2.03822 10 2.03822C9.81944 2.03822 9.67014 2.09724 9.55208 2.2153C9.43403 2.33335 9.375 2.48266 9.375 2.66322C9.375 2.84377 9.43403 2.99308 9.55208 3.11113C9.67014 3.22919 9.81944 3.28822 10 3.28822Z" fill="#EA580C"/>
</svg>
