<svg width="20" height="20" viewBox="0 0 20 20" fill="none" xmlns="http://www.w3.org/2000/svg">
<path d="M13.4165 6.71484V4.13151H6.58315V6.71484H4.79148V2.33984H15.2082V6.71484H13.4165ZM14.4334 11.0065C14.7181 11.0065 14.9611 10.9023 15.1625 10.694C15.3639 10.4857 15.4646 10.2391 15.4646 9.95443C15.4646 9.66971 15.3647 9.42665 15.165 9.22526C14.9654 9.02387 14.7181 8.92318 14.4229 8.92318C14.1452 8.92318 13.9021 9.02297 13.6938 9.22255C13.4854 9.42227 13.3813 9.66971 13.3813 9.96484C13.3813 10.2426 13.4854 10.4857 13.6938 10.694C13.9021 10.9023 14.1486 11.0065 14.4334 11.0065ZM13.4165 16.1251V13.5673H6.58315V16.1251H13.4165ZM15.2082 17.9167H4.79148V14.7084H1.36523V9.33984C1.36523 8.61068 1.62246 7.99089 2.1369 7.48047C2.65135 6.97005 3.26912 6.71484 3.99023 6.71484H16.0094C16.7386 6.71484 17.3584 6.97005 17.8688 7.48047C18.3792 7.99089 18.6344 8.61068 18.6344 9.33984V14.7084H15.2082V17.9167ZM16.8427 12.9167V9.34776C16.8427 9.10637 16.7649 8.90582 16.6092 8.74609C16.4535 8.58637 16.2605 8.50651 16.0302 8.50651H3.99023C3.75412 8.50651 3.55621 8.58637 3.39648 8.74609C3.23676 8.90582 3.1569 9.10373 3.1569 9.33984V12.9167H4.79148V11.7757H15.2082V12.9167H16.8427Z" fill="#EA580C"/>
</svg>
