<svg width="20" height="20" viewBox="0 0 20 20" fill="none" xmlns="http://www.w3.org/2000/svg">
<path d="M4.89575 18.708C4.17464 18.708 3.55686 18.4507 3.04242 17.9363C2.52797 17.4218 2.27075 16.8053 2.27075 16.0867V13.2913H4.81242V1.61816L6.09138 2.73691L7.38617 1.61816L8.68096 2.73691L9.97596 1.61816L11.2708 2.73691L12.5655 1.61816L13.8605 2.73691L15.1553 1.61816L16.4501 2.73691L17.7291 1.61816V16.083C17.7291 16.8041 17.4719 17.4218 16.9574 17.9363C16.443 18.4507 15.8252 18.708 15.1041 18.708H4.89575ZM15.1041 16.9163C15.3402 16.9163 15.5381 16.8364 15.6978 16.6767C15.8576 16.517 15.9374 16.3191 15.9374 16.083V4.16629H6.60409V13.2913H14.2708V16.083C14.2708 16.3191 14.3506 16.517 14.5103 16.6767C14.6701 16.8364 14.868 16.9163 15.1041 16.9163ZM7.43096 7.62462V5.83296H12.4085V7.62462H7.43096ZM7.43096 10.4996V8.70796H12.4085V10.4996H7.43096ZM14.0768 7.73671C13.8033 7.73671 13.5669 7.63712 13.3676 7.43796C13.1685 7.23865 13.0689 7.00226 13.0689 6.72879C13.0689 6.45532 13.1685 6.21893 13.3676 6.01962C13.5669 5.82046 13.8033 5.72087 14.0768 5.72087C14.3503 5.72087 14.5867 5.82046 14.786 6.01962C14.9853 6.21893 15.0849 6.45532 15.0849 6.72879C15.0849 7.00226 14.9853 7.23865 14.786 7.43796C14.5867 7.63712 14.3503 7.73671 14.0768 7.73671ZM14.0768 10.6117C13.8033 10.6117 13.5669 10.5121 13.3676 10.313C13.1685 10.1137 13.0689 9.87726 13.0689 9.60379C13.0689 9.33032 13.1685 9.09393 13.3676 8.89462C13.5669 8.69546 13.8033 8.59587 14.0768 8.59587C14.3503 8.59587 14.5867 8.69546 14.786 8.89462C14.9853 9.09393 15.0849 9.33032 15.0849 9.60379C15.0849 9.87726 14.9853 10.1137 14.786 10.313C14.5867 10.5121 14.3503 10.6117 14.0768 10.6117ZM4.89575 16.9163H12.4791V15.083H4.06242V16.083C4.06242 16.3191 4.14228 16.517 4.302 16.6767C4.46172 16.8364 4.65964 16.9163 4.89575 16.9163Z" fill="#EA580C"/>
</svg>
