<svg width="20" height="20" viewBox="0 0 20 20" fill="none" xmlns="http://www.w3.org/2000/svg">
<path d="M14.3124 18.5833C13.5948 18.5833 12.9835 18.3307 12.4787 17.8255C11.9739 17.3204 11.7216 16.7071 11.7216 15.9855C11.7216 15.8467 11.7573 15.6164 11.8289 15.2947L5.81928 11.8268C5.58776 12.0612 5.31366 12.2448 4.99699 12.3776C4.68046 12.5104 4.3504 12.5768 4.00678 12.5768C3.28734 12.5768 2.67588 12.3249 2.17241 11.8212C1.6688 11.3173 1.41699 10.7085 1.41699 9.99492C1.41699 9.28145 1.6688 8.67096 2.17241 8.16346C2.67588 7.65596 3.28734 7.40221 4.00678 7.40221C4.3504 7.40221 4.68046 7.4686 4.99699 7.60138C5.31366 7.73415 5.58776 7.91777 5.81928 8.15221L11.8289 4.67138C11.7958 4.55499 11.7696 4.44068 11.7503 4.32846C11.7312 4.21624 11.7216 4.10457 11.7216 3.99346C11.7216 3.27193 11.9741 2.6586 12.4793 2.15346C12.9846 1.64832 13.5981 1.39575 14.3199 1.39575C15.0417 1.39575 15.6515 1.64839 16.1493 2.15367C16.6472 2.65895 16.8962 3.27242 16.8962 3.99408C16.8962 4.71589 16.6456 5.32575 16.1445 5.82367C15.6435 6.32145 15.0351 6.57034 14.3193 6.57034C13.9741 6.57034 13.6443 6.50652 13.3297 6.37888C13.015 6.25124 12.7433 6.06936 12.5147 5.83325L6.48428 9.30117C6.51734 9.4177 6.54352 9.53547 6.56283 9.6545C6.58199 9.77367 6.59158 9.88881 6.59158 9.99992C6.59158 10.111 6.58546 10.2203 6.57324 10.3276C6.56088 10.4348 6.53817 10.5446 6.50512 10.657L12.5355 14.1458C12.7641 13.9096 13.0323 13.7278 13.3401 13.6001C13.6478 13.4725 13.9741 13.4087 14.3193 13.4087C15.0351 13.4087 15.6435 13.6599 16.1445 14.1622C16.6456 14.6646 16.8962 15.2746 16.8962 15.9922C16.8962 16.71 16.645 17.3212 16.1426 17.826C15.6403 18.3308 15.0302 18.5833 14.3124 18.5833Z" fill="#EA580C"/>
</svg>
