<svg width="20" height="20" viewBox="0 0 20 20" fill="none" xmlns="http://www.w3.org/2000/svg">
<path d="M13.4167 6.71484V4.13151H6.5834V6.71484H4.79173V2.33984H15.2084V6.71484H13.4167ZM14.4336 11.0065C14.7183 11.0065 14.9614 10.9023 15.1628 10.694C15.3642 10.4857 15.4649 10.2391 15.4649 9.95443C15.4649 9.6697 15.365 9.42665 15.1653 9.22526C14.9657 9.02387 14.7183 8.92318 14.4232 8.92318C14.1454 8.92318 13.9024 9.02297 13.694 9.22255C13.4857 9.42227 13.3815 9.6697 13.3815 9.96484C13.3815 10.2426 13.4857 10.4857 13.694 10.694C13.9024 10.9023 14.1489 11.0065 14.4336 11.0065ZM13.4167 16.1251V13.5673H6.5834V16.1251H13.4167ZM15.2084 17.9167H4.79173V14.7084H1.36548V9.33984C1.36548 8.61068 1.6227 7.99089 2.13715 7.48047C2.65159 6.97005 3.26937 6.71484 3.99048 6.71484H16.0096C16.7388 6.71484 17.3586 6.97005 17.869 7.48047C18.3794 7.99089 18.6346 8.61068 18.6346 9.33984V14.7084H15.2084V17.9167ZM16.843 12.9167V9.34776C16.843 9.10637 16.7651 8.90582 16.6094 8.74609C16.4537 8.58637 16.2608 8.50651 16.0305 8.50651H3.99048C3.75437 8.50651 3.55645 8.58637 3.39673 8.74609C3.23701 8.90582 3.15715 9.10373 3.15715 9.33984V12.9167H4.79173V11.7757H15.2084V12.9167H16.843Z" fill="#525252"/>
</svg>
