<svg width="20" height="20" viewBox="0 0 20 20" fill="none" xmlns="http://www.w3.org/2000/svg">
<path d="M10.0018 13.4808C11.085 13.4808 12.005 13.1017 12.762 12.3435C13.5189 11.5853 13.8974 10.6647 13.8974 9.58146C13.8974 8.49826 13.5183 7.57819 12.7601 6.82125C12.0019 6.06431 11.0812 5.68583 9.99802 5.68583C8.91483 5.68583 7.99476 6.06493 7.23782 6.82313C6.48087 7.58132 6.1024 8.50201 6.1024 9.58521C6.1024 10.6684 6.4815 11.5885 7.23969 12.3454C7.99789 13.1024 8.91858 13.4808 10.0018 13.4808ZM9.9974 11.875C9.36018 11.875 8.81934 11.6519 8.3749 11.2058C7.93045 10.7597 7.70823 10.2181 7.70823 9.58083C7.70823 8.94361 7.93129 8.40278 8.3774 7.95833C8.82351 7.51389 9.36518 7.29167 10.0024 7.29167C10.6396 7.29167 11.1805 7.51472 11.6249 7.96083C12.0693 8.40694 12.2916 8.94861 12.2916 9.58583C12.2916 10.2231 12.0685 10.7639 11.6224 11.2083C11.1763 11.6528 10.6346 11.875 9.9974 11.875ZM10.0009 16.0417C7.89025 16.0417 5.97754 15.454 4.26282 14.2788C2.54809 13.1036 1.30448 11.5385 0.531982 9.58333C1.30448 7.62819 2.54768 6.06306 4.26157 4.88792C5.97559 3.71264 7.88802 3.125 9.99886 3.125C12.1096 3.125 14.0223 3.71264 15.737 4.88792C17.4517 6.06306 18.6953 7.62819 19.4678 9.58333C18.6953 11.5385 17.4521 13.1036 15.7382 14.2788C14.0242 15.454 12.1118 16.0417 10.0009 16.0417ZM9.9999 14.25C11.5971 14.25 13.0684 13.8293 14.4139 12.9879C15.7593 12.1465 16.788 11.0117 17.4999 9.58333C16.788 8.155 15.7593 7.02014 14.4139 6.17875C13.0684 5.33736 11.5971 4.91667 9.9999 4.91667C8.40268 4.91667 6.93136 5.33736 5.58594 6.17875C4.24052 7.02014 3.21184 8.155 2.4999 9.58333C3.21184 11.0117 4.24052 12.1465 5.58594 12.9879C6.93136 13.8293 8.40268 14.25 9.9999 14.25Z" fill="#525252"/>
</svg>
