<svg width="20" height="20" viewBox="0 0 20 20" fill="none" xmlns="http://www.w3.org/2000/svg">
<path d="M14.3122 18.583C13.5945 18.583 12.9833 18.3304 12.4784 17.8253C11.9737 17.3202 11.7213 16.7068 11.7213 15.9853C11.7213 15.8464 11.7571 15.6161 11.8286 15.2945L5.81904 11.8265C5.58751 12.061 5.31341 12.2446 4.99675 12.3774C4.68022 12.5102 4.35015 12.5765 4.00654 12.5765C3.2871 12.5765 2.67564 12.3247 2.17216 11.8209C1.66855 11.317 1.41675 10.7083 1.41675 9.99467C1.41675 9.2812 1.66855 8.67072 2.17216 8.16322C2.67564 7.65572 3.2871 7.40197 4.00654 7.40197C4.35015 7.40197 4.68022 7.46836 4.99675 7.60113C5.31341 7.73391 5.58751 7.91752 5.81904 8.15197L11.8286 4.67113C11.7956 4.55474 11.7694 4.44044 11.7501 4.32822C11.7309 4.21599 11.7213 4.10433 11.7213 3.99322C11.7213 3.27169 11.9739 2.65835 12.479 2.15322C12.9843 1.64808 13.5979 1.39551 14.3197 1.39551C15.0415 1.39551 15.6513 1.64815 16.149 2.15342C16.647 2.6587 16.8959 3.27217 16.8959 3.99384C16.8959 4.71565 16.6454 5.32551 16.1442 5.82342C15.6433 6.3212 15.0349 6.57009 14.319 6.57009C13.9739 6.57009 13.644 6.50627 13.3295 6.37863C13.0147 6.25099 12.7431 6.06912 12.5145 5.83301L6.48404 9.30093C6.5171 9.41745 6.54328 9.53523 6.56258 9.65426C6.58175 9.77343 6.59133 9.88856 6.59133 9.99967C6.59133 10.1108 6.58522 10.22 6.573 10.3274C6.56064 10.4346 6.53793 10.5444 6.50487 10.6568L12.5353 14.1455C12.7639 13.9094 13.0321 13.7275 13.3399 13.5999C13.6475 13.4722 13.9739 13.4084 14.319 13.4084C15.0349 13.4084 15.6433 13.6596 16.1442 14.162C16.6454 14.6643 16.8959 15.2743 16.8959 15.992C16.8959 16.7097 16.6447 17.321 16.1424 17.8257C15.64 18.3306 15.0299 18.583 14.3122 18.583Z" fill="#525252"/>
</svg>
